%TF.GenerationSoftware,KiCad,Pcbnew,9.0.6*%
%TF.CreationDate,2026-04-26T16:58:36-05:00*%
%TF.ProjectId,LV Carrier Board,4c562043-6172-4726-9965-7220426f6172,rev?*%
%TF.SameCoordinates,Original*%
%TF.FileFunction,Soldermask,Top*%
%TF.FilePolarity,Negative*%
%FSLAX46Y46*%
G04 Gerber Fmt 4.6, Leading zero omitted, Abs format (unit mm)*
G04 Created by KiCad (PCBNEW 9.0.6) date 2026-04-26 16:58:36*
%MOMM*%
%LPD*%
G01*
G04 APERTURE LIST*
G04 Aperture macros list*
%AMRoundRect*
0 Rectangle with rounded corners*
0 $1 Rounding radius*
0 $2 $3 $4 $5 $6 $7 $8 $9 X,Y pos of 4 corners*
0 Add a 4 corners polygon primitive as box body*
4,1,4,$2,$3,$4,$5,$6,$7,$8,$9,$2,$3,0*
0 Add four circle primitives for the rounded corners*
1,1,$1+$1,$2,$3*
1,1,$1+$1,$4,$5*
1,1,$1+$1,$6,$7*
1,1,$1+$1,$8,$9*
0 Add four rect primitives between the rounded corners*
20,1,$1+$1,$2,$3,$4,$5,0*
20,1,$1+$1,$4,$5,$6,$7,0*
20,1,$1+$1,$6,$7,$8,$9,0*
20,1,$1+$1,$8,$9,$2,$3,0*%
%AMFreePoly0*
4,1,22,0.945671,0.830970,1.026777,0.776777,1.080970,0.695671,1.100000,0.600000,1.100000,-0.600000,1.080970,-0.695671,1.026777,-0.776777,0.945671,-0.830970,0.850000,-0.850000,-0.450000,-0.850000,-0.545671,-0.830970,-0.626777,-0.776777,-1.026777,-0.376777,-1.080970,-0.295671,-1.100000,-0.200000,-1.100000,0.600000,-1.080970,0.695671,-1.026777,0.776777,-0.945671,0.830970,-0.850000,0.850000,
0.850000,0.850000,0.945671,0.830970,0.945671,0.830970,$1*%
G04 Aperture macros list end*
%ADD10C,0.000000*%
%ADD11RoundRect,0.237500X0.237500X-0.300000X0.237500X0.300000X-0.237500X0.300000X-0.237500X-0.300000X0*%
%ADD12R,1.000000X0.750000*%
%ADD13R,0.480000X0.750000*%
%ADD14R,2.720000X4.560000*%
%ADD15R,0.910000X5.560000*%
%ADD16R,0.420000X4.560000*%
%ADD17C,2.500000*%
%ADD18R,4.410000X2.000000*%
%ADD19R,0.600000X2.000000*%
%ADD20RoundRect,0.237500X-0.237500X0.250000X-0.237500X-0.250000X0.237500X-0.250000X0.237500X0.250000X0*%
%ADD21FreePoly0,180.000000*%
%ADD22O,2.200000X1.700000*%
%ADD23C,3.600000*%
%ADD24C,6.400000*%
%ADD25RoundRect,0.163043X-1.036957X0.586957X-1.036957X-0.586957X1.036957X-0.586957X1.036957X0.586957X0*%
%ADD26RoundRect,0.163043X-0.586957X-1.036957X0.586957X-1.036957X0.586957X1.036957X-0.586957X1.036957X0*%
%ADD27R,1.200000X1.200000*%
%ADD28RoundRect,0.237500X0.237500X-0.250000X0.237500X0.250000X-0.237500X0.250000X-0.237500X-0.250000X0*%
%ADD29RoundRect,0.237500X-0.250000X-0.237500X0.250000X-0.237500X0.250000X0.237500X-0.250000X0.237500X0*%
%ADD30RoundRect,0.150000X0.587500X0.150000X-0.587500X0.150000X-0.587500X-0.150000X0.587500X-0.150000X0*%
%ADD31C,3.000000*%
%ADD32R,0.450000X0.900000*%
%ADD33R,1.700000X1.700000*%
%ADD34C,1.700000*%
%ADD35RoundRect,0.237500X0.250000X0.237500X-0.250000X0.237500X-0.250000X-0.237500X0.250000X-0.237500X0*%
%ADD36RoundRect,0.102000X-0.765000X0.765000X-0.765000X-0.765000X0.765000X-0.765000X0.765000X0.765000X0*%
%ADD37C,1.734000*%
%ADD38RoundRect,0.200000X-0.200000X-0.275000X0.200000X-0.275000X0.200000X0.275000X-0.200000X0.275000X0*%
%ADD39RoundRect,0.250000X-0.337500X-0.475000X0.337500X-0.475000X0.337500X0.475000X-0.337500X0.475000X0*%
%ADD40RoundRect,0.237500X-0.237500X0.300000X-0.237500X-0.300000X0.237500X-0.300000X0.237500X0.300000X0*%
%ADD41RoundRect,0.150000X-0.587500X-0.150000X0.587500X-0.150000X0.587500X0.150000X-0.587500X0.150000X0*%
%ADD42C,2.800000*%
%ADD43RoundRect,0.237500X0.300000X0.237500X-0.300000X0.237500X-0.300000X-0.237500X0.300000X-0.237500X0*%
%ADD44RoundRect,0.150000X0.150000X-0.587500X0.150000X0.587500X-0.150000X0.587500X-0.150000X-0.587500X0*%
%ADD45RoundRect,0.237500X0.287500X0.237500X-0.287500X0.237500X-0.287500X-0.237500X0.287500X-0.237500X0*%
%ADD46RoundRect,0.237500X0.237500X-0.287500X0.237500X0.287500X-0.237500X0.287500X-0.237500X-0.287500X0*%
%ADD47R,2.150000X2.250000*%
%ADD48C,8.115000*%
%ADD49O,1.700000X1.700000*%
%ADD50RoundRect,0.102000X-0.590000X0.765000X-0.590000X-0.765000X0.590000X-0.765000X0.590000X0.765000X0*%
%ADD51RoundRect,0.102000X-3.605000X2.815000X-3.605000X-2.815000X3.605000X-2.815000X3.605000X2.815000X0*%
%ADD52R,3.000000X3.000000*%
%ADD53RoundRect,0.237500X-0.287500X-0.237500X0.287500X-0.237500X0.287500X0.237500X-0.287500X0.237500X0*%
%ADD54R,2.400000X2.400000*%
%ADD55C,2.400000*%
%ADD56R,3.250000X1.550000*%
%ADD57RoundRect,0.237500X-0.300000X-0.237500X0.300000X-0.237500X0.300000X0.237500X-0.300000X0.237500X0*%
%ADD58R,1.800000X0.550000*%
%ADD59RoundRect,0.200000X0.200000X0.275000X-0.200000X0.275000X-0.200000X-0.275000X0.200000X-0.275000X0*%
%ADD60RoundRect,0.150000X-0.200000X0.150000X-0.200000X-0.150000X0.200000X-0.150000X0.200000X0.150000X0*%
%ADD61RoundRect,0.102000X0.590000X-0.765000X0.590000X0.765000X-0.590000X0.765000X-0.590000X-0.765000X0*%
%ADD62RoundRect,0.102000X3.605000X-2.815000X3.605000X2.815000X-3.605000X2.815000X-3.605000X-2.815000X0*%
%ADD63RoundRect,0.237500X-0.237500X0.287500X-0.237500X-0.287500X0.237500X-0.287500X0.237500X0.287500X0*%
%ADD64R,0.550000X1.800000*%
%ADD65C,6.200000*%
%ADD66RoundRect,0.250000X0.450000X-0.350000X0.450000X0.350000X-0.450000X0.350000X-0.450000X-0.350000X0*%
%ADD67C,2.604000*%
%ADD68R,0.750000X1.000000*%
%ADD69R,0.750000X0.480000*%
%ADD70R,4.560000X2.720000*%
%ADD71R,5.560000X0.910000*%
%ADD72R,4.560000X0.420000*%
%ADD73RoundRect,0.150000X0.200000X-0.150000X0.200000X0.150000X-0.200000X0.150000X-0.200000X-0.150000X0*%
%ADD74RoundRect,1.500000X1.500000X1.500000X-1.500000X1.500000X-1.500000X-1.500000X1.500000X-1.500000X0*%
%ADD75C,6.000000*%
%ADD76C,1.905000*%
%ADD77RoundRect,0.250000X0.337500X0.475000X-0.337500X0.475000X-0.337500X-0.475000X0.337500X-0.475000X0*%
%ADD78RoundRect,0.250000X0.850000X0.600000X-0.850000X0.600000X-0.850000X-0.600000X0.850000X-0.600000X0*%
%ADD79R,1.500000X0.550000*%
%ADD80R,0.900000X0.450000*%
G04 APERTURE END LIST*
D10*
%TO.C,LOGO2*%
G36*
X43875794Y-24596905D02*
G01*
X43900993Y-25730833D01*
X44921528Y-25744476D01*
X45942064Y-25758119D01*
X45942064Y-26009059D01*
X45942064Y-26260000D01*
X44605751Y-26260000D01*
X43269438Y-26260000D01*
X43282834Y-24861488D01*
X43296231Y-23462976D01*
X43573413Y-23462976D01*
X43850596Y-23462976D01*
X43875794Y-24596905D01*
G37*
G36*
X56740873Y-24110198D02*
G01*
X56740873Y-24336984D01*
X55959722Y-24336984D01*
X55178571Y-24336984D01*
X55178571Y-24588968D01*
X55178571Y-24840952D01*
X55959722Y-24840952D01*
X56740873Y-24840952D01*
X56740873Y-25546508D01*
X56740873Y-26252063D01*
X55732936Y-26252063D01*
X54725000Y-26252063D01*
X54725000Y-26025278D01*
X54725000Y-25798492D01*
X55506151Y-25798492D01*
X56287301Y-25798492D01*
X56287301Y-25546508D01*
X56287301Y-25294524D01*
X55506151Y-25294524D01*
X54725000Y-25294524D01*
X54725000Y-24588968D01*
X54725000Y-23883413D01*
X55732936Y-23883413D01*
X56740873Y-23883413D01*
X56740873Y-24110198D01*
G37*
G36*
X49751828Y-23446870D02*
G01*
X49948612Y-23462976D01*
X49962008Y-24861488D01*
X49975404Y-26260000D01*
X49648678Y-26260000D01*
X49321952Y-26260000D01*
X49307703Y-25693036D01*
X49293453Y-25126071D01*
X48198982Y-25112494D01*
X47104510Y-25098916D01*
X47090251Y-25666859D01*
X47075993Y-26234801D01*
X46760211Y-26249826D01*
X46444429Y-26264851D01*
X46457830Y-24863914D01*
X46471231Y-23462976D01*
X46727691Y-23448025D01*
X46926790Y-23452861D01*
X47035363Y-23495420D01*
X47040728Y-23501244D01*
X47066275Y-23578573D01*
X47089051Y-23731243D01*
X47105876Y-23933801D01*
X47111847Y-24070561D01*
X47126389Y-24571706D01*
X48209921Y-24571706D01*
X49293453Y-24571706D01*
X49307752Y-24030474D01*
X49317061Y-23772555D01*
X49336771Y-23599779D01*
X49378781Y-23496509D01*
X49454990Y-23447105D01*
X49577298Y-23435930D01*
X49751828Y-23446870D01*
G37*
G36*
X51981389Y-23442880D02*
G01*
X52304517Y-23446724D01*
X52772725Y-23455193D01*
X53150655Y-23467869D01*
X53448823Y-23488856D01*
X53677744Y-23522257D01*
X53847934Y-23572178D01*
X53969908Y-23642721D01*
X54054182Y-23737992D01*
X54111272Y-23862094D01*
X54151693Y-24019132D01*
X54180352Y-24178856D01*
X54190781Y-24381314D01*
X54167188Y-24603805D01*
X54116695Y-24812348D01*
X54046422Y-24972966D01*
X54002371Y-25028160D01*
X53938130Y-25094076D01*
X53938297Y-25146382D01*
X54005288Y-25226572D01*
X54014499Y-25236385D01*
X54070563Y-25311351D01*
X54107230Y-25408775D01*
X54130316Y-25553634D01*
X54145634Y-25770905D01*
X54147438Y-25807429D01*
X54169076Y-26260000D01*
X53835332Y-26260000D01*
X53501588Y-26260000D01*
X53501588Y-25964415D01*
X53489342Y-25757713D01*
X53446898Y-25614351D01*
X53397136Y-25536042D01*
X53292685Y-25403254D01*
X52338803Y-25403254D01*
X51384921Y-25403254D01*
X51384921Y-25831627D01*
X51384921Y-26260000D01*
X51057342Y-26260000D01*
X50729762Y-26260000D01*
X50729762Y-24875047D01*
X50729762Y-24412116D01*
X50729762Y-23992143D01*
X51384921Y-23992143D01*
X51384921Y-24412116D01*
X51389188Y-24609653D01*
X51400542Y-24767374D01*
X51416816Y-24859012D01*
X51422719Y-24870099D01*
X51482819Y-24881199D01*
X51627244Y-24889204D01*
X51839564Y-24893761D01*
X52103345Y-24894519D01*
X52402158Y-24891126D01*
X52403719Y-24891098D01*
X52740482Y-24884007D01*
X52990965Y-24875610D01*
X53169681Y-24864404D01*
X53291141Y-24848885D01*
X53369859Y-24827551D01*
X53420349Y-24798897D01*
X53436853Y-24784093D01*
X53502195Y-24665962D01*
X53526407Y-24474497D01*
X53526786Y-24439462D01*
X53516791Y-24270129D01*
X53478410Y-24163196D01*
X53407810Y-24088484D01*
X53357720Y-24054546D01*
X53293423Y-24029601D01*
X53199814Y-24012287D01*
X53061788Y-24001247D01*
X52864240Y-23995123D01*
X52592064Y-23992554D01*
X52336878Y-23992143D01*
X51384921Y-23992143D01*
X50729762Y-23992143D01*
X50729762Y-23490095D01*
X50855608Y-23458509D01*
X50938764Y-23450726D01*
X51107805Y-23445150D01*
X51347847Y-23441903D01*
X51644004Y-23441106D01*
X51981389Y-23442880D01*
G37*
%TD*%
D11*
%TO.C,C12*%
X103400000Y-90662500D03*
X103400000Y-88937500D03*
%TD*%
%TO.C,CMOSFET1*%
X134500000Y-63712500D03*
X134500000Y-61987500D03*
%TD*%
D12*
%TO.C,Q9*%
X101720000Y-93500000D03*
X101720000Y-94770000D03*
X101720000Y-96040000D03*
X101720000Y-97310000D03*
D13*
X107480000Y-97310000D03*
X107480000Y-93500000D03*
D14*
X105880000Y-95405000D03*
D15*
X104065000Y-95405000D03*
D16*
X103400000Y-95405000D03*
%TD*%
D17*
%TO.C,TP29*%
X31525000Y-25275000D03*
%TD*%
%TO.C,TP4*%
X152500000Y-111500000D03*
%TD*%
%TO.C,TP13*%
X152500000Y-97000000D03*
%TD*%
D18*
%TO.C,IC4*%
X76400000Y-110950000D03*
X71320000Y-110950000D03*
D19*
X69415000Y-120250000D03*
X70685000Y-120250000D03*
X71955000Y-120250000D03*
X73225000Y-120250000D03*
X74495000Y-120250000D03*
X75765000Y-120250000D03*
X77035000Y-120250000D03*
X78305000Y-120250000D03*
%TD*%
D20*
%TO.C,R46*%
X79175000Y-106062500D03*
X79175000Y-107887500D03*
%TD*%
D21*
%TO.C,J4*%
X17070000Y-74000000D03*
D22*
X17070000Y-71500000D03*
%TD*%
D23*
%TO.C,H5*%
X114700000Y-76800000D03*
D24*
X114700000Y-76800000D03*
%TD*%
D20*
%TO.C,R12*%
X18550000Y-31562500D03*
X18550000Y-33387500D03*
%TD*%
D25*
%TO.C,D27*%
X87300000Y-88050000D03*
X87300000Y-92350000D03*
%TD*%
D26*
%TO.C,D26*%
X72049999Y-130600000D03*
X76349999Y-130600000D03*
%TD*%
D27*
%TO.C,D5*%
X98400000Y-126800000D03*
X101199998Y-126800000D03*
%TD*%
D28*
%TO.C,R37*%
X129750000Y-93212500D03*
X129750000Y-91387500D03*
%TD*%
D29*
%TO.C,R44*%
X93087500Y-113900000D03*
X94912500Y-113900000D03*
%TD*%
%TO.C,R21*%
X34275000Y-39800000D03*
X36100000Y-39800000D03*
%TD*%
D30*
%TO.C,D1*%
X87187500Y-29000000D03*
X87187500Y-27100000D03*
X85312500Y-28050000D03*
%TD*%
D31*
%TO.C,TP26*%
X59100000Y-135400000D03*
%TD*%
%TO.C,TP19*%
X57500000Y-88700000D03*
%TD*%
D17*
%TO.C,TP12*%
X26000000Y-95600000D03*
%TD*%
D29*
%TO.C,R13*%
X101287500Y-105100000D03*
X103112500Y-105100000D03*
%TD*%
D32*
%TO.C,IC1*%
X91200000Y-120100000D03*
X91850000Y-120100000D03*
X92500000Y-120100000D03*
X93150000Y-120100000D03*
X93150000Y-117900000D03*
X92500000Y-117900000D03*
X91850000Y-117900000D03*
X91200000Y-117900000D03*
%TD*%
D33*
%TO.C,J13*%
X26700000Y-142245000D03*
D34*
X26700000Y-144785000D03*
X26700000Y-147325000D03*
%TD*%
D35*
%TO.C,R1*%
X94912500Y-115500000D03*
X93087500Y-115500000D03*
%TD*%
D31*
%TO.C,TP9*%
X129500000Y-96500000D03*
%TD*%
D28*
%TO.C,R11*%
X41900000Y-47112500D03*
X41900000Y-45287500D03*
%TD*%
D35*
%TO.C,R22*%
X36100000Y-41400000D03*
X34275000Y-41400000D03*
%TD*%
D31*
%TO.C,TP21*%
X72800000Y-146400000D03*
%TD*%
D36*
%TO.C,U2*%
X163710000Y-112630000D03*
D37*
X163710000Y-110090000D03*
X163710000Y-107550000D03*
X163710000Y-105010000D03*
X163710000Y-102470000D03*
X163710000Y-99930000D03*
X163710000Y-97390000D03*
X163710000Y-94850000D03*
X166250000Y-112630000D03*
X166250000Y-110090000D03*
X166250000Y-107550000D03*
X166250000Y-105010000D03*
X166250000Y-102470000D03*
X166250000Y-99930000D03*
X166250000Y-97390000D03*
X166250000Y-94850000D03*
X168790000Y-112630000D03*
X168790000Y-110090000D03*
X168790000Y-107550000D03*
X168790000Y-105010000D03*
X168790000Y-102470000D03*
X168790000Y-99930000D03*
X168790000Y-97390000D03*
X168790000Y-94850000D03*
X170300000Y-123300000D03*
X167800000Y-123300000D03*
X165300000Y-123300000D03*
X162800000Y-123300000D03*
X170300000Y-126300000D03*
X167800000Y-126300000D03*
X165300000Y-126300000D03*
X162800000Y-126300000D03*
X170300000Y-117800000D03*
X167800000Y-117800000D03*
X165300000Y-117800000D03*
X162800000Y-117800000D03*
X170300000Y-120800000D03*
X167800000Y-120800000D03*
X165300000Y-120800000D03*
X162800000Y-120800000D03*
X170300000Y-87040000D03*
X167800000Y-87040000D03*
X165300000Y-87040000D03*
X162800000Y-87040000D03*
X170300000Y-90040000D03*
X167800000Y-90040000D03*
X165300000Y-90040000D03*
X162800000Y-90040000D03*
X170300000Y-81540000D03*
X167800000Y-81540000D03*
X165300000Y-81540000D03*
X162800000Y-81540000D03*
X170300000Y-84540000D03*
X167800000Y-84540000D03*
X165300000Y-84540000D03*
X162800000Y-84540000D03*
%TD*%
D38*
%TO.C,R3*%
X138800000Y-76300000D03*
X140450000Y-76300000D03*
%TD*%
D39*
%TO.C,C1*%
X142162500Y-76300000D03*
X144237500Y-76300000D03*
%TD*%
D40*
%TO.C,C13*%
X46000000Y-37537500D03*
X46000000Y-39262500D03*
%TD*%
D35*
%TO.C,R24*%
X36100000Y-44900000D03*
X34275000Y-44900000D03*
%TD*%
D20*
%TO.C,R18*%
X24200000Y-31487500D03*
X24200000Y-33312500D03*
%TD*%
D41*
%TO.C,Q11*%
X38162500Y-43100000D03*
X38162500Y-45000000D03*
X40037500Y-44050000D03*
%TD*%
D17*
%TO.C,TP2*%
X26000000Y-99200000D03*
%TD*%
D42*
%TO.C,TP20*%
X17600000Y-42350000D03*
%TD*%
D20*
%TO.C,R14*%
X97050000Y-120700000D03*
X97050000Y-122525000D03*
%TD*%
D43*
%TO.C,C8*%
X75262500Y-126400000D03*
X73537500Y-126400000D03*
%TD*%
D44*
%TO.C,Q6*%
X98650000Y-122280000D03*
X100550000Y-122280000D03*
X99600000Y-120404999D03*
%TD*%
D35*
%TO.C,R28*%
X59262500Y-107550000D03*
X57437500Y-107550000D03*
%TD*%
D45*
%TO.C,D2*%
X58987500Y-141600000D03*
X57237500Y-141600000D03*
%TD*%
D46*
%TO.C,D20*%
X117900000Y-86775000D03*
X117900000Y-85025000D03*
%TD*%
D28*
%TO.C,R20*%
X77575000Y-107862500D03*
X77575000Y-106037500D03*
%TD*%
D47*
%TO.C,D13*%
X43470000Y-147595000D03*
X43470000Y-151995000D03*
%TD*%
D31*
%TO.C,TP25*%
X64300000Y-135400000D03*
%TD*%
D28*
%TO.C,R31*%
X148200000Y-87712500D03*
X148200000Y-85887500D03*
%TD*%
D17*
%TO.C,TP6*%
X152500000Y-106666667D03*
%TD*%
%TO.C,TP1*%
X26200000Y-107400000D03*
%TD*%
D20*
%TO.C,R29*%
X81100000Y-115537500D03*
X81100000Y-117362500D03*
%TD*%
D29*
%TO.C,R36*%
X91075000Y-59500000D03*
X92900000Y-59500000D03*
%TD*%
D20*
%TO.C,R27*%
X86150000Y-80112500D03*
X86150000Y-81937500D03*
%TD*%
D11*
%TO.C,C9*%
X90400000Y-91962500D03*
X90400000Y-90237500D03*
%TD*%
D48*
%TO.C,J16*%
X19390000Y-145350000D03*
%TD*%
D33*
%TO.C,J7*%
X78520000Y-75400000D03*
D49*
X81060000Y-75400000D03*
X83600000Y-75400000D03*
X86140000Y-75400000D03*
%TD*%
D48*
%TO.C,J15*%
X154300000Y-155740000D03*
%TD*%
D50*
%TO.C,Q1*%
X131800000Y-64100000D03*
X129800000Y-64100000D03*
X127800000Y-64100000D03*
X125800000Y-64100000D03*
D51*
X128800000Y-69350000D03*
%TD*%
D52*
%TO.C,J8*%
X112800000Y-169000000D03*
D31*
X107800000Y-169000000D03*
%TD*%
D45*
%TO.C,D17*%
X75037500Y-25050000D03*
X73287500Y-25050000D03*
%TD*%
D53*
%TO.C,D8*%
X103925000Y-25600000D03*
X105675000Y-25600000D03*
%TD*%
D29*
%TO.C,R30*%
X69812500Y-25050000D03*
X71637500Y-25050000D03*
%TD*%
D35*
%TO.C,R42*%
X31112500Y-146275000D03*
X29287500Y-146275000D03*
%TD*%
D33*
%TO.C,J17*%
X62775000Y-25150000D03*
D34*
X65315000Y-25150000D03*
%TD*%
D29*
%TO.C,R15*%
X97487500Y-124100000D03*
X99312500Y-124100000D03*
%TD*%
D53*
%TO.C,D15*%
X53962500Y-107550000D03*
X55712500Y-107550000D03*
%TD*%
D28*
%TO.C,R8*%
X54250000Y-39162500D03*
X54250000Y-37337500D03*
%TD*%
D50*
%TO.C,Q3*%
X104300000Y-64125000D03*
X102300000Y-64125000D03*
X100300000Y-64125000D03*
X98300000Y-64125000D03*
D51*
X101300000Y-69375000D03*
%TD*%
D31*
%TO.C,TP11*%
X87450000Y-97400000D03*
%TD*%
D54*
%TO.C,C3*%
X152900000Y-28087246D03*
D55*
X152900000Y-35587246D03*
%TD*%
D56*
%TO.C,R6*%
X111300000Y-49900000D03*
X111300000Y-44200000D03*
%TD*%
D57*
%TO.C,C5*%
X66837500Y-81050000D03*
X68562500Y-81050000D03*
%TD*%
D17*
%TO.C,TP27*%
X64050000Y-100050000D03*
%TD*%
D48*
%TO.C,J14*%
X151250000Y-127840000D03*
%TD*%
D36*
%TO.C,U4*%
X34420000Y-112580000D03*
D37*
X34420000Y-110040000D03*
X34420000Y-107500000D03*
X34420000Y-104960000D03*
X34420000Y-102420000D03*
X34420000Y-99880000D03*
X34420000Y-97340000D03*
X34420000Y-94800000D03*
X36960000Y-112580000D03*
X36960000Y-110040000D03*
X36960000Y-107500000D03*
X36960000Y-104960000D03*
X36960000Y-102420000D03*
X36960000Y-99880000D03*
X36960000Y-97340000D03*
X36960000Y-94800000D03*
X39500000Y-112580000D03*
X39500000Y-110040000D03*
X39500000Y-107500000D03*
X39500000Y-104960000D03*
X39500000Y-102420000D03*
X39500000Y-99880000D03*
X39500000Y-97340000D03*
X39500000Y-94800000D03*
X41010000Y-123250000D03*
X38510000Y-123250000D03*
X36010000Y-123250000D03*
X33510000Y-123250000D03*
X41010000Y-126250000D03*
X38510000Y-126250000D03*
X36010000Y-126250000D03*
X33510000Y-126250000D03*
X41010000Y-117750000D03*
X38510000Y-117750000D03*
X36010000Y-117750000D03*
X33510000Y-117750000D03*
X41010000Y-120750000D03*
X38510000Y-120750000D03*
X36010000Y-120750000D03*
X33510000Y-120750000D03*
X41010000Y-86990000D03*
X38510000Y-86990000D03*
X36010000Y-86990000D03*
X33510000Y-86990000D03*
X41010000Y-89990000D03*
X38510000Y-89990000D03*
X36010000Y-89990000D03*
X33510000Y-89990000D03*
X41010000Y-81490000D03*
X38510000Y-81490000D03*
X36010000Y-81490000D03*
X33510000Y-81490000D03*
X41010000Y-84490000D03*
X38510000Y-84490000D03*
X36010000Y-84490000D03*
X33510000Y-84490000D03*
%TD*%
D31*
%TO.C,TP14*%
X111000000Y-31500000D03*
%TD*%
D58*
%TO.C,J6*%
X112850000Y-54300000D03*
X117150000Y-54300000D03*
X112850000Y-55100000D03*
X117150000Y-55100000D03*
X112850000Y-55900000D03*
X117150000Y-55900000D03*
X112850000Y-56700000D03*
X117150000Y-56700000D03*
X112850000Y-57500000D03*
X117150000Y-57500000D03*
X112850000Y-58300000D03*
X117150000Y-58300000D03*
X112850000Y-59100000D03*
X117150000Y-59100000D03*
X112850000Y-59900000D03*
X117150000Y-59900000D03*
X112850000Y-60700000D03*
X117150000Y-60700000D03*
X112850000Y-61500000D03*
X117150000Y-61500000D03*
X112850000Y-62300000D03*
X117150000Y-62300000D03*
X112850000Y-63100000D03*
X117150000Y-63100000D03*
D23*
X142600000Y-69400000D03*
D24*
X142600000Y-69400000D03*
D23*
X142600000Y-38400000D03*
D24*
X142600000Y-38400000D03*
D23*
X87600000Y-69400000D03*
D24*
X87600000Y-69400000D03*
D23*
X87600000Y-38400000D03*
D24*
X87600000Y-38400000D03*
%TD*%
D31*
%TO.C,TP15*%
X169200000Y-171400000D03*
%TD*%
D28*
%TO.C,R17*%
X77625000Y-104362500D03*
X77625000Y-102537500D03*
%TD*%
D59*
%TO.C,R4*%
X92425000Y-77500000D03*
X90775000Y-77500000D03*
%TD*%
D17*
%TO.C,TP10*%
X85500000Y-32500000D03*
%TD*%
D52*
%TO.C,J12*%
X19000000Y-161400000D03*
D31*
X19000000Y-156400000D03*
%TD*%
D20*
%TO.C,R41*%
X95500000Y-120700000D03*
X95500000Y-122525000D03*
%TD*%
D46*
%TO.C,D14*%
X86200000Y-85575000D03*
X86200000Y-83825000D03*
%TD*%
D17*
%TO.C,TP8*%
X103100000Y-116800000D03*
%TD*%
D23*
%TO.C,H2*%
X177000000Y-27000000D03*
D24*
X177000000Y-27000000D03*
%TD*%
D23*
%TO.C,H3*%
X177000000Y-170000000D03*
D24*
X177000000Y-170000000D03*
%TD*%
D60*
%TO.C,D9*%
X136100000Y-63575000D03*
X136100000Y-62175000D03*
%TD*%
D48*
%TO.C,J11*%
X174350000Y-43500000D03*
%TD*%
D28*
%TO.C,R7*%
X57500000Y-39162500D03*
X57500000Y-37337500D03*
%TD*%
%TO.C,R10*%
X41900000Y-42712500D03*
X41900000Y-40887500D03*
%TD*%
D40*
%TO.C,C15*%
X49333333Y-37537500D03*
X49333333Y-39262500D03*
%TD*%
%TO.C,CMOSFET3*%
X95300000Y-61712500D03*
X95300000Y-63437500D03*
%TD*%
D61*
%TO.C,Q4*%
X98300000Y-61125000D03*
X100300000Y-61125000D03*
X102300000Y-61125000D03*
X104300000Y-61125000D03*
D62*
X101300000Y-55875000D03*
%TD*%
D63*
%TO.C,D19*%
X148200000Y-82325000D03*
X148200000Y-84075000D03*
%TD*%
D46*
%TO.C,D22*%
X132250000Y-93175000D03*
X132250000Y-91425000D03*
%TD*%
D18*
%TO.C,IC3*%
X69860000Y-93150000D03*
X74940000Y-93150000D03*
D19*
X76845000Y-83850000D03*
X75575000Y-83850000D03*
X74305000Y-83850000D03*
X73035000Y-83850000D03*
X71765000Y-83850000D03*
X70495000Y-83850000D03*
X69225000Y-83850000D03*
X67955000Y-83850000D03*
%TD*%
D31*
%TO.C,TP18*%
X101300000Y-76500000D03*
%TD*%
D45*
%TO.C,D7*%
X58875000Y-139800000D03*
X57125000Y-139800000D03*
%TD*%
D17*
%TO.C,TP7*%
X103200000Y-120500000D03*
%TD*%
D46*
%TO.C,D16*%
X81050000Y-120625000D03*
X81050000Y-118875000D03*
%TD*%
D20*
%TO.C,R32*%
X117900000Y-81387500D03*
X117900000Y-83212500D03*
%TD*%
D28*
%TO.C,R45*%
X49333333Y-42712500D03*
X49333333Y-40887500D03*
%TD*%
D61*
%TO.C,Q2*%
X125800000Y-61100000D03*
X127800000Y-61100000D03*
X129800000Y-61100000D03*
X131800000Y-61100000D03*
D62*
X128800000Y-55850000D03*
%TD*%
D23*
%TO.C,H4*%
X18000000Y-170000000D03*
D24*
X18000000Y-170000000D03*
%TD*%
D29*
%TO.C,R26*%
X88575000Y-33600000D03*
X90400000Y-33600000D03*
%TD*%
D40*
%TO.C,C6*%
X95496828Y-117388207D03*
X95496828Y-119113207D03*
%TD*%
D52*
%TO.C,J9*%
X123950000Y-27900000D03*
D31*
X118950000Y-27900000D03*
%TD*%
%TO.C,TP17*%
X142000000Y-127200000D03*
%TD*%
D23*
%TO.C,H1*%
X18000000Y-27000000D03*
D24*
X18000000Y-27000000D03*
%TD*%
D12*
%TO.C,Q7*%
X98560000Y-97310000D03*
X98560000Y-96040000D03*
X98560000Y-94770000D03*
X98560000Y-93500000D03*
D13*
X92800000Y-93500000D03*
X92800000Y-97310000D03*
D14*
X94400000Y-95405000D03*
D15*
X96215000Y-95405000D03*
D16*
X96880000Y-95405000D03*
%TD*%
D17*
%TO.C,TP16*%
X64050000Y-103700000D03*
%TD*%
%TO.C,TP24*%
X39225000Y-25275000D03*
%TD*%
D46*
%TO.C,D12*%
X24200000Y-36675000D03*
X24200000Y-34925000D03*
%TD*%
D20*
%TO.C,R33*%
X97050707Y-117338207D03*
X97050707Y-119163207D03*
%TD*%
D25*
%TO.C,D3*%
X142400000Y-83049999D03*
X142400000Y-87349999D03*
%TD*%
D31*
%TO.C,TP22*%
X129400000Y-76500000D03*
%TD*%
D64*
%TO.C,U5*%
X57613911Y-34900002D03*
X57613910Y-30600061D03*
X58413910Y-34900061D03*
X58413910Y-30600000D03*
X59213910Y-34900061D03*
X59213911Y-30600000D03*
X60013910Y-34900061D03*
X60013909Y-30600000D03*
X60813910Y-34900061D03*
X60813910Y-30600000D03*
X61613910Y-34900061D03*
X61613908Y-30600000D03*
X62413910Y-34900061D03*
X62413909Y-30600000D03*
X63213910Y-34900061D03*
X63213910Y-30600000D03*
X64013909Y-34900002D03*
X64013909Y-30600000D03*
X64813909Y-34900002D03*
X64813909Y-30600000D03*
X65613908Y-34900002D03*
X65613908Y-30600000D03*
X66413909Y-34900002D03*
X66413909Y-30600000D03*
X41859933Y-34850002D03*
X41859933Y-30550000D03*
X42659932Y-34850002D03*
X42659932Y-30550000D03*
X43459933Y-34850002D03*
X43459933Y-30550000D03*
X44259931Y-34850002D03*
X44259931Y-30550000D03*
X45059932Y-34850002D03*
X45059932Y-30550000D03*
X45859930Y-34850002D03*
X45859930Y-30550000D03*
X46659931Y-34850002D03*
X46659931Y-30550000D03*
X47459932Y-34850002D03*
X47459932Y-30550000D03*
X48259931Y-34850002D03*
X48259931Y-30550000D03*
X49059931Y-34850002D03*
X49059931Y-30550000D03*
X49859930Y-34850002D03*
X49859930Y-30550000D03*
X50659931Y-34850002D03*
X50659931Y-30550000D03*
D23*
X29549921Y-32150001D03*
D24*
X29549921Y-32150001D03*
D23*
X79049921Y-32150001D03*
D65*
X79049921Y-32150001D03*
D23*
X79049921Y-66650001D03*
D65*
X79049921Y-66650001D03*
D23*
X29549921Y-66650001D03*
D65*
X29549921Y-66650001D03*
%TD*%
D17*
%TO.C,TP5*%
X152500000Y-101833333D03*
%TD*%
D52*
%TO.C,J5*%
X86600000Y-169000000D03*
D31*
X81600000Y-169000000D03*
%TD*%
D29*
%TO.C,R19*%
X53687500Y-139800000D03*
X55512500Y-139800000D03*
%TD*%
D66*
%TO.C,R38*%
X50280000Y-150850000D03*
X50280000Y-148850000D03*
%TD*%
D67*
%TO.C,F1*%
X78000000Y-157960000D03*
X81400000Y-157960000D03*
X78000000Y-148040000D03*
X81400000Y-148040000D03*
%TD*%
D68*
%TO.C,Q8*%
X83840000Y-117080000D03*
X85110000Y-117080000D03*
X86380000Y-117080000D03*
X87650000Y-117080000D03*
D69*
X87650000Y-111320000D03*
X83840000Y-111320000D03*
D70*
X85745000Y-112920000D03*
D71*
X85745000Y-114735000D03*
D72*
X85745000Y-115400000D03*
%TD*%
D17*
%TO.C,TP28*%
X103100000Y-113075000D03*
%TD*%
D29*
%TO.C,R16*%
X53687500Y-141600000D03*
X55512500Y-141600000D03*
%TD*%
D35*
%TO.C,R43*%
X31112500Y-143525000D03*
X29287500Y-143525000D03*
%TD*%
D67*
%TO.C,F3*%
X121950000Y-95360000D03*
X125350000Y-95360000D03*
X121950000Y-85440000D03*
X125350000Y-85440000D03*
%TD*%
D53*
%TO.C,D10*%
X88657500Y-31800000D03*
X90407500Y-31800000D03*
%TD*%
D73*
%TO.C,D11*%
X93700000Y-61900000D03*
X93700000Y-63300000D03*
%TD*%
D35*
%TO.C,R39*%
X103112500Y-106700000D03*
X101287500Y-106700000D03*
%TD*%
D56*
%TO.C,R5*%
X118818020Y-49900000D03*
X118818020Y-44200000D03*
%TD*%
D11*
%TO.C,C10*%
X81000000Y-109925000D03*
X81000000Y-108200000D03*
%TD*%
D41*
%TO.C,Q10*%
X38162500Y-39600000D03*
X38162500Y-41500000D03*
X40037500Y-40550000D03*
%TD*%
D74*
%TO.C,J3*%
X149400000Y-169000000D03*
D75*
X142200000Y-169000000D03*
%TD*%
D76*
%TO.C,F2*%
X142400000Y-134670000D03*
X142400000Y-158800000D03*
%TD*%
D46*
%TO.C,D6*%
X18525000Y-36875000D03*
X18525000Y-35125000D03*
%TD*%
D57*
%TO.C,C4*%
X73075000Y-123000000D03*
X74800000Y-123000000D03*
%TD*%
D28*
%TO.C,R35*%
X44333333Y-42712500D03*
X44333333Y-40887500D03*
%TD*%
D29*
%TO.C,R23*%
X34275000Y-43300000D03*
X36100000Y-43300000D03*
%TD*%
D42*
%TO.C,TP23*%
X17550000Y-48100000D03*
%TD*%
D40*
%TO.C,C14*%
X47666666Y-37537500D03*
X47666666Y-39262500D03*
%TD*%
D17*
%TO.C,TP3*%
X26000000Y-103000000D03*
%TD*%
D68*
%TO.C,Q5*%
X87650000Y-120240000D03*
X86380000Y-120240000D03*
X85110000Y-120240000D03*
X83840000Y-120240000D03*
D69*
X83840000Y-126000000D03*
X87650000Y-126000000D03*
D70*
X85745000Y-124400000D03*
D71*
X85745000Y-122585000D03*
D72*
X85745000Y-121920000D03*
%TD*%
D23*
%TO.C,H6*%
X55600000Y-102635110D03*
D24*
X55600000Y-102635110D03*
%TD*%
D20*
%TO.C,R2*%
X79200000Y-102537500D03*
X79200000Y-104362500D03*
%TD*%
D40*
%TO.C,C11*%
X44333333Y-37537500D03*
X44333333Y-39262500D03*
%TD*%
D58*
%TO.C,U8*%
X86550000Y-138450000D03*
X82250000Y-138450000D03*
X86550000Y-137650000D03*
X82250000Y-137650000D03*
X86550000Y-136850000D03*
X82250000Y-136850000D03*
X86550000Y-136050000D03*
X82250000Y-136050000D03*
X86550000Y-135250000D03*
X82250000Y-135250000D03*
X86550000Y-134450000D03*
X82250000Y-134450000D03*
X86550000Y-133650000D03*
X82250000Y-133650000D03*
X86550000Y-132850000D03*
X82250000Y-132850000D03*
X86550000Y-132050000D03*
X82250000Y-132050000D03*
X86550000Y-131250000D03*
X82250000Y-131250000D03*
X86550000Y-130450000D03*
X82250000Y-130450000D03*
X86550000Y-129650000D03*
X82250000Y-129650000D03*
D64*
X131950000Y-104200000D03*
X131950000Y-108500000D03*
X131150000Y-104200000D03*
X131150000Y-108500000D03*
X130350000Y-104200000D03*
X130350000Y-108500000D03*
X129550000Y-104200000D03*
X129550000Y-108500000D03*
X128750000Y-104200000D03*
X128750000Y-108500000D03*
X127950000Y-104200000D03*
X127950000Y-108500000D03*
X127150000Y-104200000D03*
X127150000Y-108500000D03*
X126350000Y-104200000D03*
X126350000Y-108500000D03*
X125550000Y-104200000D03*
X125550000Y-108500000D03*
X124750000Y-104200000D03*
X124750000Y-108500000D03*
X123950000Y-104200000D03*
X123950000Y-108500000D03*
X123150000Y-104200000D03*
X123150000Y-108500000D03*
D23*
X93150000Y-126350000D03*
D24*
X93150000Y-126350000D03*
D23*
X133150000Y-141550000D03*
D24*
X133150000Y-141550000D03*
%TD*%
D77*
%TO.C,C2*%
X90912500Y-75225000D03*
X88837500Y-75225000D03*
%TD*%
D28*
%TO.C,R9*%
X47666666Y-42712500D03*
X47666666Y-40887500D03*
%TD*%
D78*
%TO.C,J2*%
X17000000Y-91500000D03*
D22*
X17000000Y-89000000D03*
X17000000Y-86500000D03*
X17000000Y-84000000D03*
%TD*%
D28*
%TO.C,R40*%
X46000000Y-42712500D03*
X46000000Y-40887500D03*
%TD*%
D79*
%TO.C,J1*%
X71000000Y-97300000D03*
X74800000Y-97300000D03*
X71000000Y-98100000D03*
X74800000Y-98100000D03*
X71000000Y-98900000D03*
X74800000Y-98900000D03*
X71000000Y-99700000D03*
X74800000Y-99700000D03*
X71000000Y-100500000D03*
X74800000Y-100500000D03*
X71000000Y-101300000D03*
X74800000Y-101300000D03*
X71000000Y-102100000D03*
X74800000Y-102100000D03*
X71000000Y-102900000D03*
X74800000Y-102900000D03*
X71000000Y-103700000D03*
X74800000Y-103700000D03*
X71000000Y-104500000D03*
X74800000Y-104500000D03*
X71000000Y-105300000D03*
X74800000Y-105300000D03*
X71000000Y-106100000D03*
X74800000Y-106100000D03*
D23*
X64010000Y-109229780D03*
D24*
X64010000Y-109229780D03*
D23*
X98719971Y-86159809D03*
D24*
X98719971Y-86159809D03*
%TD*%
D26*
%TO.C,D4*%
X89050000Y-80700000D03*
X93350000Y-80700000D03*
%TD*%
D80*
%TO.C,IC2*%
X102500000Y-100700000D03*
X102500000Y-101350000D03*
X102500000Y-102000000D03*
X102500000Y-102650000D03*
X104700000Y-102650000D03*
X104700000Y-102000000D03*
X104700000Y-101350000D03*
X104700000Y-100700000D03*
%TD*%
D35*
%TO.C,R25*%
X109400000Y-25600000D03*
X107575000Y-25600000D03*
%TD*%
D11*
%TO.C,C7*%
X99700000Y-106762500D03*
X99700000Y-105037500D03*
%TD*%
M02*
